<svg id="visual" viewBox="0 0 900 600" width="900" height="600" xmlns="http://www.w3.org/2000/svg" xmlns:xlink="http://www.w3.org/1999/xlink" version="1.1"><path d="M0 170L21.5 165.5C43 161 86 152 128.8 145.7C171.7 139.3 214.3 135.7 257.2 135.5C300 135.3 343 138.7 385.8 149.7C428.7 160.7 471.3 179.3 514.2 194.5C557 209.7 600 221.3 642.8 218.2C685.7 215 728.3 197 771.2 194.2C814 191.3 857 203.7 878.5 209.8L900 216L900 0L878.5 0C857 0 814 0 771.2 0C728.3 0 685.7 0 642.8 0C600 0 557 0 514.2 0C471.3 0 428.7 0 385.8 0C343 0 300 0 257.2 0C214.3 0 171.7 0 128.8 0C86 0 43 0 21.5 0L0 0Z" fill="#715df2"></path><path d="M0 169L21.5 156.8C43 144.7 86 120.3 128.8 119.5C171.7 118.7 214.3 141.3 257.2 146C300 150.7 343 137.3 385.8 139.3C428.7 141.3 471.3 158.7 514.2 156.2C557 153.7 600 131.3 642.8 125C685.7 118.7 728.3 128.3 771.2 135C814 141.7 857 145.3 878.5 147.2L900 149L900 0L878.5 0C857 0 814 0 771.2 0C728.3 0 685.7 0 642.8 0C600 0 557 0 514.2 0C471.3 0 428.7 0 385.8 0C343 0 300 0 257.2 0C214.3 0 171.7 0 128.8 0C86 0 43 0 21.5 0L0 0Z" fill="#6940fa"></path><path d="M0 76L21.5 78.2C43 80.3 86 84.7 128.8 81.8C171.7 79 214.3 69 257.2 71.3C300 73.7 343 88.3 385.8 94.8C428.7 101.3 471.3 99.7 514.2 98.8C557 98 600 98 642.8 100.2C685.7 102.3 728.3 106.7 771.2 98.2C814 89.7 857 68.3 878.5 57.7L900 47L900 0L878.5 0C857 0 814 0 771.2 0C728.3 0 685.7 0 642.8 0C600 0 557 0 514.2 0C471.3 0 428.7 0 385.8 0C343 0 300 0 257.2 0C214.3 0 171.7 0 128.8 0C86 0 43 0 21.5 0L0 0Z" fill="#6600ff"></path></svg>